# xmcd CD database file
#
# Track frame offsets:
#	150
#	30601
#	52181
#	77075
#	104597
#	133656
#	154907
#	169413
#	186792
#	221660
#	244346
#
# Disc length: 3605 seconds
#
# Revision: 0
# Processed by: cddbd v1.5.2PL0 Copyright (c) Steve Scherf et al.
# Submitted via: CDex 1.70beta2
#
DISCID=a20e130b
DTITLE="Reverend" T.C. Denecke - simple truth for beginners
DYEAR=1996
DGENRE=Jazz
TTITLE0=enterprize theme - lovely day
TTITLE1=Heute hier, morgen dort
TTITLE2=wherever I lay my hat
TTITLE3=when I fall in love
TTITLE4=I say a little prayer
TTITLE5=the fluchtprunder
TTITLE6=straight to my heart
TTITLE7=wha did I do?
TTITLE8=Über den Wolken
TTITLE9=doo doo do the boogaloo
TTITLE10=you've got a friend
EXTD=YEAR: 1996
EXTT0=
EXTT1=
EXTT2=
EXTT3=
EXTT4=
EXTT5=
EXTT6=
EXTT7=
EXTT8=
EXTT9=
EXTT10=
PLAYORDER=
